<?xml version="1.0" encoding="UTF-8" standalone="no"?>
<!DOCTYPE svg PUBLIC "-//W3C//DTD SVG 1.1//EN"
 "http://www.w3.org/Graphics/SVG/1.1/DTD/svg11.dtd">
<!-- Generated by graphviz version 2.30.1 (20130312.1557)
 -->
<!-- Title: controllers_diagram Pages: 1 -->
<svg width="901pt" height="571pt"
 viewBox="0.00 0.00 901.38 571.27" xmlns="http://www.w3.org/2000/svg" xmlns:xlink="http://www.w3.org/1999/xlink">
<g id="graph0" class="graph" transform="scale(1 1) rotate(0) translate(4 567.272)">
<title>controllers_diagram</title>
<polygon fill="white" stroke="white" points="-4,5 -4,-567.272 898.375,-567.272 898.375,5 -4,5"/>
<!-- _diagram_info -->
<g id="node1" class="node"><title>_diagram_info</title>
<text text-anchor="start" x="694" y="-265" font-family="Times,serif" font-size="13.00">Controllers diagram</text>
<text text-anchor="start" x="694" y="-249.4" font-family="Times,serif" font-size="13.00">Date: Mar 12 2013 &#45; 16:39</text>
<text text-anchor="start" x="694" y="-233.8" font-family="Times,serif" font-size="13.00">Migration version: 20130306165555</text>
<text text-anchor="start" x="694" y="-218.2" font-family="Times,serif" font-size="13.00">Generated by RailRoady 1.1.0</text>
<text text-anchor="start" x="694" y="-202.6" font-family="Times,serif" font-size="13.00">http://railroady.prestonlee.com</text>
</g>
<!-- ApplicationController -->
<g id="node2" class="node"><title>ApplicationController</title>
<path fill="none" stroke="black" d="M216.255,-217.713C216.255,-217.713 394.889,-217.713 394.889,-217.713 400.889,-217.713 406.889,-223.713 406.889,-229.713 406.889,-229.713 406.889,-320.913 406.889,-320.913 406.889,-326.913 400.889,-332.913 394.889,-332.913 394.889,-332.913 216.255,-332.913 216.255,-332.913 210.255,-332.913 204.255,-326.913 204.255,-320.913 204.255,-320.913 204.255,-229.713 204.255,-229.713 204.255,-223.713 210.255,-217.713 216.255,-217.713"/>
<text text-anchor="middle" x="305.572" y="-314.913" font-family="Times,serif" font-size="14.00">ApplicationController</text>
<polyline fill="none" stroke="black" points="204.255,-308.113 406.889,-308.113 "/>
<text text-anchor="start" x="212.255" y="-290.113" font-family="Times,serif" font-size="14.00">_one_time_conditions_valid_18?</text>
<text text-anchor="start" x="212.255" y="-273.313" font-family="Times,serif" font-size="14.00">current_ability</text>
<polyline fill="none" stroke="black" points="204.255,-266.513 406.889,-266.513 "/>
<polyline fill="none" stroke="black" points="204.255,-242.513 406.889,-242.513 "/>
<text text-anchor="start" x="212.255" y="-224.513" font-family="Times,serif" font-size="14.00">_layout</text>
</g>
<!-- CategoriesController -->
<g id="node3" class="node"><title>CategoriesController</title>
<path fill="none" stroke="black" d="M505.339,-224.562C505.339,-224.562 614.754,-224.562 614.754,-224.562 620.754,-224.562 626.754,-230.562 626.754,-236.562 626.754,-236.562 626.754,-327.762 626.754,-327.762 626.754,-333.762 620.754,-339.762 614.754,-339.762 614.754,-339.762 505.339,-339.762 505.339,-339.762 499.339,-339.762 493.339,-333.762 493.339,-327.762 493.339,-327.762 493.339,-236.562 493.339,-236.562 493.339,-230.562 499.339,-224.562 505.339,-224.562"/>
<text text-anchor="middle" x="560.047" y="-321.762" font-family="Times,serif" font-size="14.00">CategoriesController</text>
<polyline fill="none" stroke="black" points="493.339,-314.962 626.754,-314.962 "/>
<text text-anchor="start" x="501.339" y="-296.962" font-family="Times,serif" font-size="14.00">index</text>
<text text-anchor="start" x="501.339" y="-280.162" font-family="Times,serif" font-size="14.00">show</text>
<polyline fill="none" stroke="black" points="493.339,-273.362 626.754,-273.362 "/>
<polyline fill="none" stroke="black" points="493.339,-249.362 626.754,-249.362 "/>
<text text-anchor="start" x="501.339" y="-231.362" font-family="Times,serif" font-size="14.00">_layout</text>
</g>
<!-- ApplicationController&#45;&gt;CategoriesController -->
<g id="edge1" class="edge"><title>ApplicationController&#45;&gt;CategoriesController</title>
<path fill="none" stroke="black" d="M407.244,-278.05C436.178,-278.828 466.952,-279.656 493.242,-280.364"/>
</g>
<!-- CoursesController -->
<g id="node4" class="node"><title>CoursesController</title>
<path fill="none" stroke="black" d="M110.895,-0.5C110.895,-0.5 205.551,-0.5 205.551,-0.5 211.551,-0.5 217.551,-6.5 217.551,-12.5 217.551,-12.5 217.551,-86.9 217.551,-86.9 217.551,-92.9 211.551,-98.9 205.551,-98.9 205.551,-98.9 110.895,-98.9 110.895,-98.9 104.895,-98.9 98.8954,-92.9 98.8954,-86.9 98.8954,-86.9 98.8954,-12.5 98.8954,-12.5 98.8954,-6.5 104.895,-0.5 110.895,-0.5"/>
<text text-anchor="middle" x="158.223" y="-80.9" font-family="Times,serif" font-size="14.00">CoursesController</text>
<polyline fill="none" stroke="black" points="98.8954,-74.1 217.551,-74.1 "/>
<text text-anchor="start" x="106.895" y="-56.1" font-family="Times,serif" font-size="14.00">show</text>
<polyline fill="none" stroke="black" points="98.8954,-49.3 217.551,-49.3 "/>
<polyline fill="none" stroke="black" points="98.8954,-25.3 217.551,-25.3 "/>
<text text-anchor="start" x="106.895" y="-7.3" font-family="Times,serif" font-size="14.00">_layout</text>
</g>
<!-- ApplicationController&#45;&gt;CoursesController -->
<g id="edge2" class="edge"><title>ApplicationController&#45;&gt;CoursesController</title>
<path fill="none" stroke="black" d="M267.817,-217.505C243.857,-180.818 213.186,-133.856 190.387,-98.9477"/>
</g>
<!-- EnrollmentsController -->
<g id="node5" class="node"><title>EnrollmentsController</title>
<path fill="none" stroke="black" d="M15.6136,-346.772C15.6136,-346.772 201.248,-346.772 201.248,-346.772 207.248,-346.772 213.248,-352.772 213.248,-358.772 213.248,-358.772 213.248,-550.772 213.248,-550.772 213.248,-556.772 207.248,-562.772 201.248,-562.772 201.248,-562.772 15.6136,-562.772 15.6136,-562.772 9.61363,-562.772 3.61363,-556.772 3.61363,-550.772 3.61363,-550.772 3.61363,-358.772 3.61363,-358.772 3.61363,-352.772 9.61363,-346.772 15.6136,-346.772"/>
<text text-anchor="middle" x="108.431" y="-544.772" font-family="Times,serif" font-size="14.00">EnrollmentsController</text>
<polyline fill="none" stroke="black" points="3.61363,-537.972 213.248,-537.972 "/>
<text text-anchor="start" x="11.6136" y="-519.972" font-family="Times,serif" font-size="14.00">_one_time_conditions_valid_332?</text>
<text text-anchor="start" x="11.6136" y="-503.172" font-family="Times,serif" font-size="14.00">cancel</text>
<text text-anchor="start" x="11.6136" y="-486.372" font-family="Times,serif" font-size="14.00">edit</text>
<text text-anchor="start" x="11.6136" y="-469.572" font-family="Times,serif" font-size="14.00">index</text>
<text text-anchor="start" x="11.6136" y="-452.772" font-family="Times,serif" font-size="14.00">new</text>
<text text-anchor="start" x="11.6136" y="-435.972" font-family="Times,serif" font-size="14.00">refund</text>
<text text-anchor="start" x="11.6136" y="-419.172" font-family="Times,serif" font-size="14.00">result</text>
<text text-anchor="start" x="11.6136" y="-402.372" font-family="Times,serif" font-size="14.00">tr_data</text>
<polyline fill="none" stroke="black" points="3.61363,-395.572 213.248,-395.572 "/>
<polyline fill="none" stroke="black" points="3.61363,-371.572 213.248,-371.572 "/>
<text text-anchor="start" x="11.6136" y="-353.572" font-family="Times,serif" font-size="14.00">_layout</text>
</g>
<!-- ApplicationController&#45;&gt;EnrollmentsController -->
<g id="edge3" class="edge"><title>ApplicationController&#45;&gt;EnrollmentsController</title>
<path fill="none" stroke="black" d="M242.11,-333.083C232.88,-341.485 223.178,-350.317 213.391,-359.226"/>
</g>
<!-- HerokuController -->
<g id="node6" class="node"><title>HerokuController</title>
<path fill="none" stroke="black" d="M516.572,-410.864C516.572,-410.864 640.772,-410.864 640.772,-410.864 646.772,-410.864 652.772,-416.864 652.772,-422.864 652.772,-422.864 652.772,-530.864 652.772,-530.864 652.772,-536.864 646.772,-542.864 640.772,-542.864 640.772,-542.864 516.572,-542.864 516.572,-542.864 510.572,-542.864 504.572,-536.864 504.572,-530.864 504.572,-530.864 504.572,-422.864 504.572,-422.864 504.572,-416.864 510.572,-410.864 516.572,-410.864"/>
<text text-anchor="middle" x="578.672" y="-524.864" font-family="Times,serif" font-size="14.00">HerokuController</text>
<polyline fill="none" stroke="black" points="504.572,-518.064 652.772,-518.064 "/>
<text text-anchor="start" x="512.572" y="-500.064" font-family="Times,serif" font-size="14.00">command</text>
<text text-anchor="start" x="512.572" y="-483.264" font-family="Times,serif" font-size="14.00">run</text>
<text text-anchor="start" x="512.572" y="-466.464" font-family="Times,serif" font-size="14.00">simple_format_no_tags</text>
<polyline fill="none" stroke="black" points="504.572,-459.664 652.772,-459.664 "/>
<polyline fill="none" stroke="black" points="504.572,-435.664 652.772,-435.664 "/>
<text text-anchor="start" x="512.572" y="-417.664" font-family="Times,serif" font-size="14.00">_layout</text>
</g>
<!-- ApplicationController&#45;&gt;HerokuController -->
<g id="edge4" class="edge"><title>ApplicationController&#45;&gt;HerokuController</title>
<path fill="none" stroke="black" d="M383.832,-333.07C421.66,-360.987 466.836,-394.328 504.159,-421.873"/>
</g>
<!-- IncomingMessagesController -->
<g id="node7" class="node"><title>IncomingMessagesController</title>
<path fill="none" stroke="black" d="M264.476,-427.546C264.476,-427.546 422.111,-427.546 422.111,-427.546 428.111,-427.546 434.111,-433.546 434.111,-439.546 434.111,-439.546 434.111,-513.946 434.111,-513.946 434.111,-519.946 428.111,-525.946 422.111,-525.946 422.111,-525.946 264.476,-525.946 264.476,-525.946 258.476,-525.946 252.476,-519.946 252.476,-513.946 252.476,-513.946 252.476,-439.546 252.476,-439.546 252.476,-433.546 258.476,-427.546 264.476,-427.546"/>
<text text-anchor="middle" x="343.294" y="-507.946" font-family="Times,serif" font-size="14.00">IncomingMessagesController</text>
<polyline fill="none" stroke="black" points="252.476,-501.146 434.111,-501.146 "/>
<text text-anchor="start" x="260.476" y="-483.146" font-family="Times,serif" font-size="14.00">create</text>
<polyline fill="none" stroke="black" points="252.476,-476.346 434.111,-476.346 "/>
<polyline fill="none" stroke="black" points="252.476,-452.346 434.111,-452.346 "/>
<text text-anchor="start" x="260.476" y="-434.346" font-family="Times,serif" font-size="14.00">_layout</text>
</g>
<!-- ApplicationController&#45;&gt;IncomingMessagesController -->
<g id="edge5" class="edge"><title>ApplicationController&#45;&gt;IncomingMessagesController</title>
<path fill="none" stroke="black" d="M316.382,-333.036C321.977,-362.914 328.735,-399.006 334.08,-427.546"/>
</g>
<!-- MessageThreadsController -->
<g id="node8" class="node"><title>MessageThreadsController</title>
<path fill="none" stroke="black" d="M12,-148.127C12,-148.127 155.621,-148.127 155.621,-148.127 161.621,-148.127 167.621,-154.127 167.621,-160.127 167.621,-160.127 167.621,-268.127 167.621,-268.127 167.621,-274.127 161.621,-280.127 155.621,-280.127 155.621,-280.127 12,-280.127 12,-280.127 6,-280.127 5.68434e-14,-274.127 5.68434e-14,-268.127 5.68434e-14,-268.127 5.68434e-14,-160.127 5.68434e-14,-160.127 5.68434e-14,-154.127 6,-148.127 12,-148.127"/>
<text text-anchor="middle" x="83.8105" y="-262.127" font-family="Times,serif" font-size="14.00">MessageThreadsController</text>
<polyline fill="none" stroke="black" points="5.68434e-14,-255.327 167.621,-255.327 "/>
<text text-anchor="start" x="8" y="-237.327" font-family="Times,serif" font-size="14.00">create</text>
<text text-anchor="start" x="8" y="-220.527" font-family="Times,serif" font-size="14.00">new</text>
<text text-anchor="start" x="8" y="-203.727" font-family="Times,serif" font-size="14.00">show</text>
<polyline fill="none" stroke="black" points="5.68434e-14,-196.927 167.621,-196.927 "/>
<polyline fill="none" stroke="black" points="5.68434e-14,-172.927 167.621,-172.927 "/>
<text text-anchor="start" x="8" y="-154.927" font-family="Times,serif" font-size="14.00">_layout</text>
</g>
<!-- ApplicationController&#45;&gt;MessageThreadsController -->
<g id="edge6" class="edge"><title>ApplicationController&#45;&gt;MessageThreadsController</title>
<path fill="none" stroke="black" d="M204.102,-247.317C191.899,-243.95 179.542,-240.541 167.63,-237.254"/>
</g>
<!-- MessagesController -->
<g id="node9" class="node"><title>MessagesController</title>
<path fill="none" stroke="black" d="M544.649,-30.0672C544.649,-30.0672 648.629,-30.0672 648.629,-30.0672 654.629,-30.0672 660.629,-36.0672 660.629,-42.0672 660.629,-42.0672 660.629,-115.667 660.629,-115.667 660.629,-121.667 654.629,-127.667 648.629,-127.667 648.629,-127.667 544.649,-127.667 544.649,-127.667 538.649,-127.667 532.649,-121.667 532.649,-115.667 532.649,-115.667 532.649,-42.0672 532.649,-42.0672 532.649,-36.0672 538.649,-30.0672 544.649,-30.0672"/>
<text text-anchor="middle" x="596.639" y="-109.667" font-family="Times,serif" font-size="14.00">MessagesController</text>
<polyline fill="none" stroke="black" points="532.649,-102.867 660.629,-102.867 "/>
<polyline fill="none" stroke="black" points="532.649,-78.8672 660.629,-78.8672 "/>
<polyline fill="none" stroke="black" points="532.649,-54.8672 660.629,-54.8672 "/>
<text text-anchor="start" x="540.649" y="-36.8672" font-family="Times,serif" font-size="14.00">_layout</text>
</g>
<!-- ApplicationController&#45;&gt;MessagesController -->
<g id="edge7" class="edge"><title>ApplicationController&#45;&gt;MessagesController</title>
<path fill="none" stroke="black" d="M390.935,-217.7C436.226,-187.133 490.954,-150.196 532.57,-122.108"/>
</g>
<!-- StaticPagesController -->
<g id="node10" class="node"><title>StaticPagesController</title>
<path fill="none" stroke="black" d="M333.328,-33.0118C333.328,-33.0118 447.418,-33.0118 447.418,-33.0118 453.418,-33.0118 459.418,-39.0118 459.418,-45.0118 459.418,-45.0118 459.418,-119.412 459.418,-119.412 459.418,-125.412 453.418,-131.412 447.418,-131.412 447.418,-131.412 333.328,-131.412 333.328,-131.412 327.328,-131.412 321.328,-125.412 321.328,-119.412 321.328,-119.412 321.328,-45.0118 321.328,-45.0118 321.328,-39.0118 327.328,-33.0118 333.328,-33.0118"/>
<text text-anchor="middle" x="390.373" y="-113.412" font-family="Times,serif" font-size="14.00">StaticPagesController</text>
<polyline fill="none" stroke="black" points="321.328,-106.612 459.418,-106.612 "/>
<text text-anchor="start" x="329.328" y="-88.6118" font-family="Times,serif" font-size="14.00">home</text>
<polyline fill="none" stroke="black" points="321.328,-81.8118 459.418,-81.8118 "/>
<polyline fill="none" stroke="black" points="321.328,-57.8118 459.418,-57.8118 "/>
<text text-anchor="start" x="329.328" y="-39.8118" font-family="Times,serif" font-size="14.00">_layout</text>
</g>
<!-- ApplicationController&#45;&gt;StaticPagesController -->
<g id="edge8" class="edge"><title>ApplicationController&#45;&gt;StaticPagesController</title>
<path fill="none" stroke="black" d="M330.9,-217.638C342.955,-190.188 357.22,-157.705 368.757,-131.434"/>
</g>
</g>
</svg>
