<?xml version="1.0" encoding="UTF-8" standalone="no"?>
<!DOCTYPE svg PUBLIC "-//W3C//DTD SVG 1.1//EN"
 "http://www.w3.org/Graphics/SVG/1.1/DTD/svg11.dtd">
<!-- Generated by graphviz version 2.30.1 (20130312.1557)
 -->
<!-- Title: models_diagram Pages: 1 -->
<svg width="991pt" height="1542pt"
 viewBox="0.00 0.00 991.00 1542.00" xmlns="http://www.w3.org/2000/svg" xmlns:xlink="http://www.w3.org/1999/xlink">
<g id="graph0" class="graph" transform="scale(1 1) rotate(0) translate(4 1538)">
<title>models_diagram</title>
<polygon fill="white" stroke="white" points="-4,5 -4,-1538 988,-1538 988,5 -4,5"/>
<!-- _diagram_info -->
<g id="node1" class="node"><title>_diagram_info</title>
<text text-anchor="start" x="7.31226" y="-1492" font-family="Times,serif" font-size="13.00">Models diagram</text>
<text text-anchor="start" x="7.31226" y="-1476.4" font-family="Times,serif" font-size="13.00">Date: Mar 12 2013 &#45; 16:39</text>
<text text-anchor="start" x="7.31226" y="-1460.8" font-family="Times,serif" font-size="13.00">Migration version: 20130306165555</text>
<text text-anchor="start" x="7.31226" y="-1445.2" font-family="Times,serif" font-size="13.00">Generated by RailRoady 1.1.0</text>
<text text-anchor="start" x="7.31226" y="-1429.6" font-family="Times,serif" font-size="13.00">http://railroady.prestonlee.com</text>
</g>
<!-- Ability -->
<g id="node2" class="node"><title>Ability</title>
<polygon fill="none" stroke="black" points="225.166,-1441.2 225.166,-1490.8 280.834,-1490.8 280.834,-1441.2 225.166,-1441.2"/>
<text text-anchor="middle" x="253" y="-1472.8" font-family="Times,serif" font-size="14.00">Ability</text>
<polyline fill="none" stroke="black" points="225.166,-1466 280.834,-1466 "/>
<text text-anchor="middle" x="253" y="-1448" font-family="Times,serif" font-size="14.00"> </text>
</g>
<!-- AdminPermission -->
<g id="node3" class="node"><title>AdminPermission</title>
<path fill="none" stroke="black" d="M310.981,-1432.8C310.981,-1432.8 441.019,-1432.8 441.019,-1432.8 447.019,-1432.8 453.019,-1438.8 453.019,-1444.8 453.019,-1444.8 453.019,-1487.2 453.019,-1487.2 453.019,-1493.2 447.019,-1499.2 441.019,-1499.2 441.019,-1499.2 310.981,-1499.2 310.981,-1499.2 304.981,-1499.2 298.981,-1493.2 298.981,-1487.2 298.981,-1487.2 298.981,-1444.8 298.981,-1444.8 298.981,-1438.8 304.981,-1432.8 310.981,-1432.8"/>
<text text-anchor="middle" x="376" y="-1481.2" font-family="Times,serif" font-size="14.00">AdminPermission</text>
<polyline fill="none" stroke="black" points="298.981,-1474.4 453.019,-1474.4 "/>
<text text-anchor="start" x="306.981" y="-1456.4" font-family="Times,serif" font-size="14.00">id :integer</text>
<text text-anchor="start" x="306.981" y="-1439.6" font-family="Times,serif" font-size="14.00">permission_name :string</text>
</g>
<!-- AdminUser -->
<g id="node4" class="node"><title>AdminUser</title>
<path fill="none" stroke="black" d="M285.722,-1059.2C285.722,-1059.2 466.278,-1059.2 466.278,-1059.2 472.278,-1059.2 478.278,-1065.2 478.278,-1071.2 478.278,-1071.2 478.278,-1348.8 478.278,-1348.8 478.278,-1354.8 472.278,-1360.8 466.278,-1360.8 466.278,-1360.8 285.722,-1360.8 285.722,-1360.8 279.722,-1360.8 273.722,-1354.8 273.722,-1348.8 273.722,-1348.8 273.722,-1071.2 273.722,-1071.2 273.722,-1065.2 279.722,-1059.2 285.722,-1059.2"/>
<text text-anchor="middle" x="376" y="-1342.8" font-family="Times,serif" font-size="14.00">AdminUser</text>
<polyline fill="none" stroke="black" points="273.722,-1336 478.278,-1336 "/>
<text text-anchor="start" x="281.722" y="-1318" font-family="Times,serif" font-size="14.00">id :integer</text>
<text text-anchor="start" x="281.722" y="-1301.2" font-family="Times,serif" font-size="14.00">email :string</text>
<text text-anchor="start" x="281.722" y="-1284.4" font-family="Times,serif" font-size="14.00">forename :string</text>
<text text-anchor="start" x="281.722" y="-1267.6" font-family="Times,serif" font-size="14.00">surname :string</text>
<text text-anchor="start" x="281.722" y="-1250.8" font-family="Times,serif" font-size="14.00">encrypted_password :string</text>
<text text-anchor="start" x="281.722" y="-1234" font-family="Times,serif" font-size="14.00">reset_password_token :string</text>
<text text-anchor="start" x="281.722" y="-1217.2" font-family="Times,serif" font-size="14.00">reset_password_sent_at :datetime</text>
<text text-anchor="start" x="281.722" y="-1200.4" font-family="Times,serif" font-size="14.00">remember_created_at :datetime</text>
<text text-anchor="start" x="281.722" y="-1183.6" font-family="Times,serif" font-size="14.00">sign_in_count :integer</text>
<text text-anchor="start" x="281.722" y="-1166.8" font-family="Times,serif" font-size="14.00">current_sign_in_at :datetime</text>
<text text-anchor="start" x="281.722" y="-1150" font-family="Times,serif" font-size="14.00">last_sign_in_at :datetime</text>
<text text-anchor="start" x="281.722" y="-1133.2" font-family="Times,serif" font-size="14.00">current_sign_in_ip :string</text>
<text text-anchor="start" x="281.722" y="-1116.4" font-family="Times,serif" font-size="14.00">last_sign_in_ip :string</text>
<text text-anchor="start" x="281.722" y="-1099.6" font-family="Times,serif" font-size="14.00">created_at :datetime</text>
<text text-anchor="start" x="281.722" y="-1082.8" font-family="Times,serif" font-size="14.00">updated_at :datetime</text>
<text text-anchor="start" x="281.722" y="-1066" font-family="Times,serif" font-size="14.00">admin_permission_id :integer</text>
</g>
<!-- AdminPermission&#45;&gt;AdminUser -->
<g id="edge1" class="edge"><title>AdminPermission&#45;&gt;AdminUser</title>
<path fill="none" stroke="#b643fc" d="M376,-1424.16C376,-1408.87 376,-1390.42 376,-1370.86"/>
<ellipse fill="none" stroke="#b643fc" cx="376" cy="-1428.57" rx="4" ry="4"/>
<polygon fill="#b643fc" stroke="#b643fc" points="376,-1370.86 380.5,-1360.86 376,-1365.86 376,-1360.86 376,-1360.86 376,-1360.86 376,-1365.86 371.5,-1360.86 376,-1370.86 376,-1370.86"/>
</g>
<!-- Teacher -->
<g id="node18" class="node"><title>Teacher</title>
<path fill="none" stroke="black" d="M315.267,-904.6C315.267,-904.6 436.733,-904.6 436.733,-904.6 442.733,-904.6 448.733,-910.6 448.733,-916.6 448.733,-916.6 448.733,-1009.4 448.733,-1009.4 448.733,-1015.4 442.733,-1021.4 436.733,-1021.4 436.733,-1021.4 315.267,-1021.4 315.267,-1021.4 309.267,-1021.4 303.267,-1015.4 303.267,-1009.4 303.267,-1009.4 303.267,-916.6 303.267,-916.6 303.267,-910.6 309.267,-904.6 315.267,-904.6"/>
<text text-anchor="middle" x="376" y="-1003.4" font-family="Times,serif" font-size="14.00">Teacher</text>
<polyline fill="none" stroke="black" points="303.267,-996.6 448.733,-996.6 "/>
<text text-anchor="start" x="311.267" y="-978.6" font-family="Times,serif" font-size="14.00">id :integer</text>
<text text-anchor="start" x="311.267" y="-961.8" font-family="Times,serif" font-size="14.00">asset_id :integer</text>
<text text-anchor="start" x="311.267" y="-945" font-family="Times,serif" font-size="14.00">is_active :boolean</text>
<text text-anchor="start" x="311.267" y="-928.2" font-family="Times,serif" font-size="14.00">description :text</text>
<text text-anchor="start" x="311.267" y="-911.4" font-family="Times,serif" font-size="14.00">admin_user_id :integer</text>
</g>
<!-- AdminUser&#45;&gt;Teacher -->
<g id="edge2" class="edge"><title>AdminUser&#45;&gt;Teacher</title>
<path fill="none" stroke="#207b8b" d="M376,-1050.78C376,-1043.57 376,-1036.54 376,-1029.81"/>
<ellipse fill="none" stroke="#207b8b" cx="376" cy="-1055.07" rx="4" ry="4"/>
<ellipse fill="#207b8b" stroke="#207b8b" cx="376" cy="-1025.44" rx="4" ry="4"/>
</g>
<!-- Asset -->
<g id="node5" class="node"><title>Asset</title>
<path fill="none" stroke="black" d="M45.3877,-1143.2C45.3877,-1143.2 188.612,-1143.2 188.612,-1143.2 194.612,-1143.2 200.612,-1149.2 200.612,-1155.2 200.612,-1155.2 200.612,-1264.8 200.612,-1264.8 200.612,-1270.8 194.612,-1276.8 188.612,-1276.8 188.612,-1276.8 45.3877,-1276.8 45.3877,-1276.8 39.3877,-1276.8 33.3877,-1270.8 33.3877,-1264.8 33.3877,-1264.8 33.3877,-1155.2 33.3877,-1155.2 33.3877,-1149.2 39.3877,-1143.2 45.3877,-1143.2"/>
<text text-anchor="middle" x="117" y="-1258.8" font-family="Times,serif" font-size="14.00">Asset</text>
<polyline fill="none" stroke="black" points="33.3877,-1252 200.612,-1252 "/>
<text text-anchor="start" x="41.3877" y="-1234" font-family="Times,serif" font-size="14.00">id :integer</text>
<text text-anchor="start" x="41.3877" y="-1217.2" font-family="Times,serif" font-size="14.00">asset_file_name :string</text>
<text text-anchor="start" x="41.3877" y="-1200.4" font-family="Times,serif" font-size="14.00">asset_content_type :string</text>
<text text-anchor="start" x="41.3877" y="-1183.6" font-family="Times,serif" font-size="14.00">asset_file_size :integer</text>
<text text-anchor="start" x="41.3877" y="-1166.8" font-family="Times,serif" font-size="14.00">asset_updated_at :datetime</text>
<text text-anchor="start" x="41.3877" y="-1150" font-family="Times,serif" font-size="14.00">description :string</text>
</g>
<!-- CourseAsset -->
<g id="node9" class="node"><title>CourseAsset</title>
<path fill="none" stroke="black" d="M71.6567,-385.4C71.6567,-385.4 164.343,-385.4 164.343,-385.4 170.343,-385.4 176.343,-391.4 176.343,-397.4 176.343,-397.4 176.343,-456.6 176.343,-456.6 176.343,-462.6 170.343,-468.6 164.343,-468.6 164.343,-468.6 71.6567,-468.6 71.6567,-468.6 65.6567,-468.6 59.6567,-462.6 59.6567,-456.6 59.6567,-456.6 59.6567,-397.4 59.6567,-397.4 59.6567,-391.4 65.6567,-385.4 71.6567,-385.4"/>
<text text-anchor="middle" x="118" y="-450.6" font-family="Times,serif" font-size="14.00">CourseAsset</text>
<polyline fill="none" stroke="black" points="59.6567,-443.8 176.343,-443.8 "/>
<text text-anchor="start" x="67.6567" y="-425.8" font-family="Times,serif" font-size="14.00">id :integer</text>
<text text-anchor="start" x="67.6567" y="-409" font-family="Times,serif" font-size="14.00">course_id :integer</text>
<text text-anchor="start" x="67.6567" y="-392.2" font-family="Times,serif" font-size="14.00">asset_id :integer</text>
</g>
<!-- Asset&#45;&gt;CourseAsset -->
<g id="edge3" class="edge"><title>Asset&#45;&gt;CourseAsset</title>
<path fill="none" stroke="#be368e" d="M110.097,-1134.71C101.052,-1027.29 87.3054,-822.326 96,-648 98.9004,-589.848 106.087,-523.371 111.463,-478.851"/>
<ellipse fill="none" stroke="#be368e" cx="110.455" cy="-1138.92" rx="4" ry="4"/>
<polygon fill="#be368e" stroke="#be368e" points="111.471,-478.787 117.15,-469.407 112.077,-473.824 112.683,-468.861 112.683,-468.861 112.683,-468.861 112.077,-473.824 108.217,-468.315 111.471,-478.787 111.471,-478.787"/>
</g>
<!-- Course -->
<g id="node8" class="node"><title>Course</title>
<path fill="none" stroke="black" d="M117.012,-649.2C117.012,-649.2 316.988,-649.2 316.988,-649.2 322.988,-649.2 328.988,-655.2 328.988,-661.2 328.988,-661.2 328.988,-854.8 328.988,-854.8 328.988,-860.8 322.988,-866.8 316.988,-866.8 316.988,-866.8 117.012,-866.8 117.012,-866.8 111.012,-866.8 105.012,-860.8 105.012,-854.8 105.012,-854.8 105.012,-661.2 105.012,-661.2 105.012,-655.2 111.012,-649.2 117.012,-649.2"/>
<text text-anchor="middle" x="217" y="-848.8" font-family="Times,serif" font-size="14.00">Course</text>
<polyline fill="none" stroke="black" points="105.012,-842 328.988,-842 "/>
<text text-anchor="start" x="113.012" y="-824" font-family="Times,serif" font-size="14.00">id :integer</text>
<text text-anchor="start" x="113.012" y="-807.2" font-family="Times,serif" font-size="14.00">title :string</text>
<text text-anchor="start" x="113.012" y="-790.4" font-family="Times,serif" font-size="14.00">description :text</text>
<text text-anchor="start" x="113.012" y="-773.6" font-family="Times,serif" font-size="14.00">brief_description :text</text>
<text text-anchor="start" x="113.012" y="-756.8" font-family="Times,serif" font-size="14.00">teacher_id :integer</text>
<text text-anchor="start" x="113.012" y="-740" font-family="Times,serif" font-size="14.00">number_of_places :integer</text>
<text text-anchor="start" x="113.012" y="-723.2" font-family="Times,serif" font-size="14.00">price :decimal</text>
<text text-anchor="start" x="113.012" y="-706.4" font-family="Times,serif" font-size="14.00">deposit :decimal</text>
<text text-anchor="start" x="113.012" y="-689.6" font-family="Times,serif" font-size="14.00">category_id :integer</text>
<text text-anchor="start" x="113.012" y="-672.8" font-family="Times,serif" font-size="14.00">hits :integer</text>
<text text-anchor="start" x="113.012" y="-656" font-family="Times,serif" font-size="14.00">refund_enrollments_before :datetime</text>
</g>
<!-- Asset&#45;&gt;Course -->
<g id="edge4" class="edge"><title>Asset&#45;&gt;Course</title>
<path fill="none" stroke="#8214c4" d="M112.486,-1132.79C110.951,-1070.09 113.789,-979.581 136,-904 138.685,-894.863 142.026,-885.67 145.808,-876.588"/>
<polygon fill="#8214c4" stroke="#8214c4" points="112.492,-1133 108.282,-1143.12 112.636,-1138 112.78,-1142.99 112.78,-1142.99 112.78,-1142.99 112.636,-1138 117.278,-1142.86 112.492,-1133 112.492,-1133"/>
<polygon fill="#8214c4" stroke="#8214c4" points="145.915,-876.342 154.027,-868.963 147.907,-871.756 149.9,-867.17 149.9,-867.17 149.9,-867.17 147.907,-871.756 145.773,-865.377 145.915,-876.342 145.915,-876.342"/>
</g>
<!-- Asset&#45;&gt;Teacher -->
<g id="edge5" class="edge"><title>Asset&#45;&gt;Teacher</title>
<path fill="none" stroke="#f2cd19" d="M184.958,-1136.96C209.663,-1111.5 238.122,-1082.99 265,-1058 275.593,-1048.15 287.003,-1038 298.334,-1028.18"/>
<ellipse fill="none" stroke="#f2cd19" cx="181.874" cy="-1140.14" rx="4.00002" ry="4.00002"/>
<polygon fill="#f2cd19" stroke="#f2cd19" points="298.579,-1027.97 309.092,-1024.85 302.367,-1024.71 306.155,-1021.44 306.155,-1021.44 306.155,-1021.44 302.367,-1024.71 303.218,-1018.03 298.579,-1027.97 298.579,-1027.97"/>
</g>
<!-- Category -->
<g id="node6" class="node"><title>Category</title>
<path fill="none" stroke="black" d="M156.605,-929.8C156.605,-929.8 273.395,-929.8 273.395,-929.8 279.395,-929.8 285.395,-935.8 285.395,-941.8 285.395,-941.8 285.395,-984.2 285.395,-984.2 285.395,-990.2 279.395,-996.2 273.395,-996.2 273.395,-996.2 156.605,-996.2 156.605,-996.2 150.605,-996.2 144.605,-990.2 144.605,-984.2 144.605,-984.2 144.605,-941.8 144.605,-941.8 144.605,-935.8 150.605,-929.8 156.605,-929.8"/>
<text text-anchor="middle" x="215" y="-978.2" font-family="Times,serif" font-size="14.00">Category</text>
<polyline fill="none" stroke="black" points="144.605,-971.4 285.395,-971.4 "/>
<text text-anchor="start" x="152.605" y="-953.4" font-family="Times,serif" font-size="14.00">id :integer</text>
<text text-anchor="start" x="152.605" y="-936.6" font-family="Times,serif" font-size="14.00">category_name :string</text>
</g>
<!-- Category&#45;&gt;Course -->
<g id="edge6" class="edge"><title>Category&#45;&gt;Course</title>
<path fill="none" stroke="#f1aaae" d="M215.4,-921.381C215.529,-908.351 215.678,-893.199 215.833,-877.487"/>
<ellipse fill="none" stroke="#f1aaae" cx="215.361" cy="-925.385" rx="4" ry="4"/>
<polygon fill="#f1aaae" stroke="#f1aaae" points="215.836,-877.098 220.435,-867.143 215.886,-872.098 215.935,-867.098 215.935,-867.098 215.935,-867.098 215.886,-872.098 211.435,-867.054 215.836,-877.098 215.836,-877.098"/>
</g>
<!-- Country -->
<g id="node7" class="node"><title>Country</title>
<path fill="none" stroke="black" d="M488.319,-724.8C488.319,-724.8 599.681,-724.8 599.681,-724.8 605.681,-724.8 611.681,-730.8 611.681,-736.8 611.681,-736.8 611.681,-779.2 611.681,-779.2 611.681,-785.2 605.681,-791.2 599.681,-791.2 599.681,-791.2 488.319,-791.2 488.319,-791.2 482.319,-791.2 476.319,-785.2 476.319,-779.2 476.319,-779.2 476.319,-736.8 476.319,-736.8 476.319,-730.8 482.319,-724.8 488.319,-724.8"/>
<text text-anchor="middle" x="544" y="-773.2" font-family="Times,serif" font-size="14.00">Country</text>
<polyline fill="none" stroke="black" points="476.319,-766.4 611.681,-766.4 "/>
<text text-anchor="start" x="484.319" y="-748.4" font-family="Times,serif" font-size="14.00">country_id :string</text>
<text text-anchor="start" x="484.319" y="-731.6" font-family="Times,serif" font-size="14.00">country_name :string</text>
</g>
<!-- Student -->
<g id="node17" class="node"><title>Student</title>
<path fill="none" stroke="black" d="M298.722,-242.6C298.722,-242.6 479.278,-242.6 479.278,-242.6 485.278,-242.6 491.278,-248.6 491.278,-254.6 491.278,-254.6 491.278,-599.4 491.278,-599.4 491.278,-605.4 485.278,-611.4 479.278,-611.4 479.278,-611.4 298.722,-611.4 298.722,-611.4 292.722,-611.4 286.722,-605.4 286.722,-599.4 286.722,-599.4 286.722,-254.6 286.722,-254.6 286.722,-248.6 292.722,-242.6 298.722,-242.6"/>
<text text-anchor="middle" x="389" y="-593.4" font-family="Times,serif" font-size="14.00">Student</text>
<polyline fill="none" stroke="black" points="286.722,-586.6 491.278,-586.6 "/>
<text text-anchor="start" x="294.722" y="-568.6" font-family="Times,serif" font-size="14.00">id :integer</text>
<text text-anchor="start" x="294.722" y="-551.8" font-family="Times,serif" font-size="14.00">forename :string</text>
<text text-anchor="start" x="294.722" y="-535" font-family="Times,serif" font-size="14.00">surname :string</text>
<text text-anchor="start" x="294.722" y="-518.2" font-family="Times,serif" font-size="14.00">country_id :string</text>
<text text-anchor="start" x="294.722" y="-501.4" font-family="Times,serif" font-size="14.00">sex_id :integer</text>
<text text-anchor="start" x="294.722" y="-484.6" font-family="Times,serif" font-size="14.00">year_of_birth :integer</text>
<text text-anchor="start" x="294.722" y="-467.8" font-family="Times,serif" font-size="14.00">email :string</text>
<text text-anchor="start" x="294.722" y="-451" font-family="Times,serif" font-size="14.00">encrypted_password :string</text>
<text text-anchor="start" x="294.722" y="-434.2" font-family="Times,serif" font-size="14.00">reset_password_token :string</text>
<text text-anchor="start" x="294.722" y="-417.4" font-family="Times,serif" font-size="14.00">reset_password_sent_at :datetime</text>
<text text-anchor="start" x="294.722" y="-400.6" font-family="Times,serif" font-size="14.00">remember_created_at :datetime</text>
<text text-anchor="start" x="294.722" y="-383.8" font-family="Times,serif" font-size="14.00">sign_in_count :integer</text>
<text text-anchor="start" x="294.722" y="-367" font-family="Times,serif" font-size="14.00">current_sign_in_at :datetime</text>
<text text-anchor="start" x="294.722" y="-350.2" font-family="Times,serif" font-size="14.00">last_sign_in_at :datetime</text>
<text text-anchor="start" x="294.722" y="-333.4" font-family="Times,serif" font-size="14.00">current_sign_in_ip :string</text>
<text text-anchor="start" x="294.722" y="-316.6" font-family="Times,serif" font-size="14.00">last_sign_in_ip :string</text>
<text text-anchor="start" x="294.722" y="-299.8" font-family="Times,serif" font-size="14.00">confirmation_token :string</text>
<text text-anchor="start" x="294.722" y="-283" font-family="Times,serif" font-size="14.00">confirmed_at :datetime</text>
<text text-anchor="start" x="294.722" y="-266.2" font-family="Times,serif" font-size="14.00">confirmation_sent_at :datetime</text>
<text text-anchor="start" x="294.722" y="-249.4" font-family="Times,serif" font-size="14.00">unconfirmed_email :string</text>
</g>
<!-- Country&#45;&gt;Student -->
<g id="edge7" class="edge"><title>Country&#45;&gt;Student</title>
<path fill="none" stroke="#9bafad" d="M525.231,-717.161C513.382,-692.012 497.107,-657.465 479.923,-620.991"/>
<ellipse fill="none" stroke="#9bafad" cx="527.009" cy="-720.935" rx="4.00002" ry="4.00002"/>
<polygon fill="#9bafad" stroke="#9bafad" points="479.798,-620.727 479.607,-609.763 477.667,-616.204 475.536,-611.681 475.536,-611.681 475.536,-611.681 477.667,-616.204 471.466,-613.598 479.798,-620.727 479.798,-620.727"/>
</g>
<!-- Course&#45;&gt;CourseAsset -->
<g id="edge8" class="edge"><title>Course&#45;&gt;CourseAsset</title>
<path fill="none" stroke="#6193f1" d="M182.037,-640.811C165.32,-585.255 146.175,-521.632 133.206,-478.533"/>
<ellipse fill="none" stroke="#6193f1" cx="183.294" cy="-644.987" rx="4.00001" ry="4.00001"/>
<polygon fill="#6193f1" stroke="#6193f1" points="133.173,-478.424 134.601,-467.552 131.732,-473.636 130.292,-468.848 130.292,-468.848 130.292,-468.848 131.732,-473.636 125.983,-470.145 133.173,-478.424 133.173,-478.424"/>
</g>
<!-- Enrollment -->
<g id="node10" class="node"><title>Enrollment</title>
<path fill="none" stroke="black" d="M253.553,-105C253.553,-105 366.447,-105 366.447,-105 372.447,-105 378.447,-111 378.447,-117 378.447,-117 378.447,-193 378.447,-193 378.447,-199 372.447,-205 366.447,-205 366.447,-205 253.553,-205 253.553,-205 247.553,-205 241.553,-199 241.553,-193 241.553,-193 241.553,-117 241.553,-117 241.553,-111 247.553,-105 253.553,-105"/>
<text text-anchor="middle" x="310" y="-187" font-family="Times,serif" font-size="14.00">Enrollment</text>
<polyline fill="none" stroke="black" points="241.553,-180.2 378.447,-180.2 "/>
<text text-anchor="start" x="249.553" y="-162.2" font-family="Times,serif" font-size="14.00">id :integer</text>
<text text-anchor="start" x="249.553" y="-145.4" font-family="Times,serif" font-size="14.00">student_id :integer</text>
<text text-anchor="start" x="249.553" y="-128.6" font-family="Times,serif" font-size="14.00">course_id :integer</text>
<text text-anchor="start" x="249.553" y="-111.8" font-family="Times,serif" font-size="14.00">is_cancelled :boolean</text>
</g>
<!-- Course&#45;&gt;Enrollment -->
<g id="edge9" class="edge"><title>Course&#45;&gt;Enrollment</title>
<path fill="none" stroke="#1d2453" d="M222.829,-641.042C229.98,-535.742 245.44,-376.766 278,-242 280.143,-233.13 282.929,-223.924 285.963,-214.976"/>
<ellipse fill="none" stroke="#1d2453" cx="222.553" cy="-645.17" rx="4" ry="4"/>
<polygon fill="#1d2453" stroke="#1d2453" points="286.015,-214.829 293.579,-206.889 287.675,-210.112 289.334,-205.396 289.334,-205.396 289.334,-205.396 287.675,-210.112 285.089,-203.902 286.015,-214.829 286.015,-214.829"/>
</g>
<!-- Course&#45;&gt;Student -->
<g id="edge10" class="edge"><title>Course&#45;&gt;Student</title>
<path fill="none" stroke="#a67004" d="M278.337,-639.676C281.65,-633.338 285.017,-626.899 288.415,-620.399"/>
<polygon fill="#a67004" stroke="#a67004" points="278.191,-639.955 269.57,-646.733 275.874,-644.386 273.557,-648.817 273.557,-648.817 273.557,-648.817 275.874,-644.386 277.545,-650.902 278.191,-639.955 278.191,-639.955"/>
<polygon fill="#a67004" stroke="#a67004" points="288.432,-620.365 297.053,-613.588 290.749,-615.934 293.065,-611.503 293.065,-611.503 293.065,-611.503 290.749,-615.934 289.077,-609.418 288.432,-620.365 288.432,-620.365"/>
</g>
<!-- TimeTableItem -->
<g id="node19" class="node"><title>TimeTableItem</title>
<path fill="none" stroke="black" d="M581.212,-360.2C581.212,-360.2 684.788,-360.2 684.788,-360.2 690.788,-360.2 696.788,-366.2 696.788,-372.2 696.788,-372.2 696.788,-481.8 696.788,-481.8 696.788,-487.8 690.788,-493.8 684.788,-493.8 684.788,-493.8 581.212,-493.8 581.212,-493.8 575.212,-493.8 569.212,-487.8 569.212,-481.8 569.212,-481.8 569.212,-372.2 569.212,-372.2 569.212,-366.2 575.212,-360.2 581.212,-360.2"/>
<text text-anchor="middle" x="633" y="-475.8" font-family="Times,serif" font-size="14.00">TimeTableItem</text>
<polyline fill="none" stroke="black" points="569.212,-469 696.788,-469 "/>
<text text-anchor="start" x="577.212" y="-451" font-family="Times,serif" font-size="14.00">id :integer</text>
<text text-anchor="start" x="577.212" y="-434.2" font-family="Times,serif" font-size="14.00">course_id :integer</text>
<text text-anchor="start" x="577.212" y="-417.4" font-family="Times,serif" font-size="14.00">location_id :integer</text>
<text text-anchor="start" x="577.212" y="-400.6" font-family="Times,serif" font-size="14.00">start_time :datetime</text>
<text text-anchor="start" x="577.212" y="-383.8" font-family="Times,serif" font-size="14.00">end_time :datetime</text>
<text text-anchor="start" x="577.212" y="-367" font-family="Times,serif" font-size="14.00">room :string</text>
</g>
<!-- Course&#45;&gt;TimeTableItem -->
<g id="edge11" class="edge"><title>Course&#45;&gt;TimeTableItem</title>
<path fill="none" stroke="#52271e" d="M336.023,-649.034C336.681,-648.685 337.34,-648.34 338,-648 403.558,-614.205 438.378,-652.531 500,-612 540.7,-585.23 573.101,-541.422 595.73,-503.267"/>
<ellipse fill="none" stroke="#52271e" cx="332.505" cy="-650.989" rx="4.00002" ry="4.00002"/>
<polygon fill="#52271e" stroke="#52271e" points="595.965,-502.861 604.876,-496.469 598.474,-498.536 600.983,-494.211 600.983,-494.211 600.983,-494.211 598.474,-498.536 597.091,-491.953 595.965,-502.861 595.965,-502.861"/>
</g>
<!-- Payment -->
<g id="node14" class="node"><title>Payment</title>
<path fill="none" stroke="black" d="M251.602,-0.8C251.602,-0.8 368.398,-0.8 368.398,-0.8 374.398,-0.8 380.398,-6.8 380.398,-12.8 380.398,-12.8 380.398,-55.2 380.398,-55.2 380.398,-61.2 374.398,-67.2 368.398,-67.2 368.398,-67.2 251.602,-67.2 251.602,-67.2 245.602,-67.2 239.602,-61.2 239.602,-55.2 239.602,-55.2 239.602,-12.8 239.602,-12.8 239.602,-6.8 245.602,-0.8 251.602,-0.8"/>
<text text-anchor="middle" x="310" y="-49.2" font-family="Times,serif" font-size="14.00">Payment</text>
<polyline fill="none" stroke="black" points="239.602,-42.4 380.398,-42.4 "/>
<text text-anchor="start" x="247.602" y="-24.4" font-family="Times,serif" font-size="14.00">transaction_id :string</text>
<text text-anchor="start" x="247.602" y="-7.6" font-family="Times,serif" font-size="14.00">enrollment_id :integer</text>
</g>
<!-- Enrollment&#45;&gt;Payment -->
<g id="edge12" class="edge"><title>Enrollment&#45;&gt;Payment</title>
<path fill="none" stroke="#dff5a9" d="M310,-96.8248C310,-90.3321 310,-83.8024 310,-77.5456"/>
<ellipse fill="none" stroke="#dff5a9" cx="310" cy="-100.911" rx="4" ry="4"/>
<polygon fill="#dff5a9" stroke="#dff5a9" points="310,-77.3282 314.5,-67.3281 310,-72.3282 310,-67.3282 310,-67.3282 310,-67.3282 310,-72.3282 305.5,-67.3282 310,-77.3282 310,-77.3282"/>
</g>
<!-- Location -->
<g id="node11" class="node"><title>Location</title>
<path fill="none" stroke="black" d="M641.419,-708C641.419,-708 718.581,-708 718.581,-708 724.581,-708 730.581,-714 730.581,-720 730.581,-720 730.581,-796 730.581,-796 730.581,-802 724.581,-808 718.581,-808 718.581,-808 641.419,-808 641.419,-808 635.419,-808 629.419,-802 629.419,-796 629.419,-796 629.419,-720 629.419,-720 629.419,-714 635.419,-708 641.419,-708"/>
<text text-anchor="middle" x="680" y="-790" font-family="Times,serif" font-size="14.00">Location</text>
<polyline fill="none" stroke="black" points="629.419,-783.2 730.581,-783.2 "/>
<text text-anchor="start" x="637.419" y="-765.2" font-family="Times,serif" font-size="14.00">id :integer</text>
<text text-anchor="start" x="637.419" y="-748.4" font-family="Times,serif" font-size="14.00">title :string</text>
<text text-anchor="start" x="637.419" y="-731.6" font-family="Times,serif" font-size="14.00">longitude :float</text>
<text text-anchor="start" x="637.419" y="-714.8" font-family="Times,serif" font-size="14.00">latitude :float</text>
</g>
<!-- Location&#45;&gt;TimeTableItem -->
<g id="edge13" class="edge"><title>Location&#45;&gt;TimeTableItem</title>
<path fill="none" stroke="#b696ad" d="M671.788,-699.518C664.048,-645.338 652.399,-563.792 643.887,-504.208"/>
<ellipse fill="none" stroke="#b696ad" cx="672.398" cy="-703.786" rx="4.00001" ry="4.00001"/>
<polygon fill="#b696ad" stroke="#b696ad" points="643.857,-503.997 646.897,-493.461 643.15,-499.047 642.442,-494.097 642.442,-494.097 642.442,-494.097 643.15,-499.047 637.988,-494.734 643.857,-503.997 643.857,-503.997"/>
</g>
<!-- Message -->
<g id="node12" class="node"><title>Message</title>
<path fill="none" stroke="black" d="M482.712,-1399.2C482.712,-1399.2 621.288,-1399.2 621.288,-1399.2 627.288,-1399.2 633.288,-1405.2 633.288,-1411.2 633.288,-1411.2 633.288,-1520.8 633.288,-1520.8 633.288,-1526.8 627.288,-1532.8 621.288,-1532.8 621.288,-1532.8 482.712,-1532.8 482.712,-1532.8 476.712,-1532.8 470.712,-1526.8 470.712,-1520.8 470.712,-1520.8 470.712,-1411.2 470.712,-1411.2 470.712,-1405.2 476.712,-1399.2 482.712,-1399.2"/>
<text text-anchor="middle" x="552" y="-1514.8" font-family="Times,serif" font-size="14.00">Message</text>
<polyline fill="none" stroke="black" points="470.712,-1508 633.288,-1508 "/>
<text text-anchor="start" x="478.712" y="-1490" font-family="Times,serif" font-size="14.00">id :integer</text>
<text text-anchor="start" x="478.712" y="-1473.2" font-family="Times,serif" font-size="14.00">message_thread_id :string</text>
<text text-anchor="start" x="478.712" y="-1456.4" font-family="Times,serif" font-size="14.00">subject :text</text>
<text text-anchor="start" x="478.712" y="-1439.6" font-family="Times,serif" font-size="14.00">is_response :boolean</text>
<text text-anchor="start" x="478.712" y="-1422.8" font-family="Times,serif" font-size="14.00">content :text</text>
<text text-anchor="start" x="478.712" y="-1406" font-family="Times,serif" font-size="14.00">created_at :datetime</text>
</g>
<!-- MessageThread -->
<g id="node13" class="node"><title>MessageThread</title>
<path fill="none" stroke="black" d="M663.45,-1424.4C663.45,-1424.4 768.55,-1424.4 768.55,-1424.4 774.55,-1424.4 780.55,-1430.4 780.55,-1436.4 780.55,-1436.4 780.55,-1495.6 780.55,-1495.6 780.55,-1501.6 774.55,-1507.6 768.55,-1507.6 768.55,-1507.6 663.45,-1507.6 663.45,-1507.6 657.45,-1507.6 651.45,-1501.6 651.45,-1495.6 651.45,-1495.6 651.45,-1436.4 651.45,-1436.4 651.45,-1430.4 657.45,-1424.4 663.45,-1424.4"/>
<text text-anchor="middle" x="716" y="-1489.6" font-family="Times,serif" font-size="14.00">MessageThread</text>
<polyline fill="none" stroke="black" points="651.45,-1482.8 780.55,-1482.8 "/>
<text text-anchor="start" x="659.45" y="-1464.8" font-family="Times,serif" font-size="14.00">id :string</text>
<text text-anchor="start" x="659.45" y="-1448" font-family="Times,serif" font-size="14.00">user_email :string</text>
<text text-anchor="start" x="659.45" y="-1431.2" font-family="Times,serif" font-size="14.00">created_at :datetime</text>
</g>
<!-- Refund -->
<g id="node15" class="node"><title>Refund</title>
<path fill="none" stroke="black" d="M810.433,-1424.4C810.433,-1424.4 971.567,-1424.4 971.567,-1424.4 977.567,-1424.4 983.567,-1430.4 983.567,-1436.4 983.567,-1436.4 983.567,-1495.6 983.567,-1495.6 983.567,-1501.6 977.567,-1507.6 971.567,-1507.6 971.567,-1507.6 810.433,-1507.6 810.433,-1507.6 804.433,-1507.6 798.433,-1501.6 798.433,-1495.6 798.433,-1495.6 798.433,-1436.4 798.433,-1436.4 798.433,-1430.4 804.433,-1424.4 810.433,-1424.4"/>
<text text-anchor="middle" x="891" y="-1489.6" font-family="Times,serif" font-size="14.00">Refund</text>
<polyline fill="none" stroke="black" points="798.433,-1482.8 983.567,-1482.8 "/>
<text text-anchor="start" x="806.433" y="-1464.8" font-family="Times,serif" font-size="14.00">id :integer</text>
<text text-anchor="start" x="806.433" y="-1448" font-family="Times,serif" font-size="14.00">refund_transaction_id :string</text>
<text text-anchor="start" x="806.433" y="-1431.2" font-family="Times,serif" font-size="14.00">original_transaction_id :string</text>
</g>
<!-- Sex -->
<g id="node16" class="node"><title>Sex</title>
<path fill="none" stroke="black" d="M359.371,-724.8C359.371,-724.8 446.629,-724.8 446.629,-724.8 452.629,-724.8 458.629,-730.8 458.629,-736.8 458.629,-736.8 458.629,-779.2 458.629,-779.2 458.629,-785.2 452.629,-791.2 446.629,-791.2 446.629,-791.2 359.371,-791.2 359.371,-791.2 353.371,-791.2 347.371,-785.2 347.371,-779.2 347.371,-779.2 347.371,-736.8 347.371,-736.8 347.371,-730.8 353.371,-724.8 359.371,-724.8"/>
<text text-anchor="middle" x="403" y="-773.2" font-family="Times,serif" font-size="14.00">Sex</text>
<polyline fill="none" stroke="black" points="347.371,-766.4 458.629,-766.4 "/>
<text text-anchor="start" x="355.371" y="-748.4" font-family="Times,serif" font-size="14.00">sex_id :integer</text>
<text text-anchor="start" x="355.371" y="-731.6" font-family="Times,serif" font-size="14.00">sex_name :string</text>
</g>
<!-- Sex&#45;&gt;Student -->
<g id="edge14" class="edge"><title>Sex&#45;&gt;Student</title>
<path fill="none" stroke="#c0af51" d="M401.275,-716.459C400.216,-691.565 398.773,-657.657 397.248,-621.83"/>
<ellipse fill="none" stroke="#c0af51" cx="401.449" cy="-720.557" rx="4" ry="4"/>
<polygon fill="#c0af51" stroke="#c0af51" points="397.241,-621.672 401.312,-611.489 397.029,-616.676 396.816,-611.681 396.816,-611.681 396.816,-611.681 397.029,-616.676 392.32,-611.872 397.241,-621.672 397.241,-621.672"/>
</g>
<!-- Student&#45;&gt;Enrollment -->
<g id="edge15" class="edge"><title>Student&#45;&gt;Enrollment</title>
<path fill="none" stroke="#f13918" d="M333.066,-234.834C331.058,-227.969 329.118,-221.34 327.274,-215.038"/>
<ellipse fill="none" stroke="#f13918" cx="334.199" cy="-238.705" rx="4.00001" ry="4.00001"/>
<polygon fill="#f13918" stroke="#f13918" points="327.268,-215.015 328.778,-204.154 325.863,-210.217 324.459,-205.418 324.459,-205.418 324.459,-205.418 325.863,-210.217 320.14,-206.682 327.268,-215.015 327.268,-215.015"/>
</g>
<!-- Teacher&#45;&gt;Course -->
<g id="edge16" class="edge"><title>Teacher&#45;&gt;Course</title>
<path fill="none" stroke="#ccda67" d="M325.843,-897.964C320.161,-890.709 314.246,-883.157 308.24,-875.489"/>
<ellipse fill="none" stroke="#ccda67" cx="328.396" cy="-901.222" rx="4.00002" ry="4.00002"/>
<polygon fill="#ccda67" stroke="#ccda67" points="307.86,-875.003 305.236,-864.356 304.777,-871.067 301.694,-867.131 301.694,-867.131 301.694,-867.131 304.777,-871.067 298.151,-869.906 307.86,-875.003 307.86,-875.003"/>
</g>
</g>
</svg>
