<?xml version="1.0" encoding="UTF-8" standalone="no"?>
<!DOCTYPE svg PUBLIC "-//W3C//DTD SVG 1.1//EN"
 "http://www.w3.org/Graphics/SVG/1.1/DTD/svg11.dtd">
<!-- Generated by graphviz version 2.30.1 (20130312.1557)
 -->
<!-- Title: models_diagram Pages: 1 -->
<svg width="836pt" height="526pt"
 viewBox="0.00 0.00 836.00 526.00" xmlns="http://www.w3.org/2000/svg" xmlns:xlink="http://www.w3.org/1999/xlink">
<g id="graph0" class="graph" transform="scale(1 1) rotate(0) translate(4 522)">
<title>models_diagram</title>
<polygon fill="white" stroke="white" points="-4,5 -4,-522 833,-522 833,5 -4,5"/>
<!-- _diagram_info -->
<g id="node1" class="node"><title>_diagram_info</title>
<text text-anchor="start" x="7.31226" y="-501" font-family="Times,serif" font-size="13.00">Models diagram</text>
<text text-anchor="start" x="7.31226" y="-485.4" font-family="Times,serif" font-size="13.00">Date: Mar 12 2013 &#45; 16:39</text>
<text text-anchor="start" x="7.31226" y="-469.8" font-family="Times,serif" font-size="13.00">Migration version: 20130306165555</text>
<text text-anchor="start" x="7.31226" y="-454.2" font-family="Times,serif" font-size="13.00">Generated by RailRoady 1.1.0</text>
<text text-anchor="start" x="7.31226" y="-438.6" font-family="Times,serif" font-size="13.00">http://railroady.prestonlee.com</text>
</g>
<!-- Ability -->
<g id="node2" class="node"><title>Ability</title>
<polygon fill="none" stroke="black" points="280.255,-493 225.745,-493 225.745,-457 280.255,-457 280.255,-493"/>
<text text-anchor="middle" x="253" y="-469.4" font-family="Times,serif" font-size="14.00">Ability</text>
</g>
<!-- AdminPermission -->
<g id="node3" class="node"><title>AdminPermission</title>
<ellipse fill="none" stroke="black" cx="380" cy="-475" rx="80.1796" ry="18"/>
<text text-anchor="middle" x="380" y="-469.4" font-family="Times,serif" font-size="14.00">AdminPermission</text>
</g>
<!-- AdminUser -->
<g id="node4" class="node"><title>AdminUser</title>
<ellipse fill="none" stroke="black" cx="380" cy="-378" rx="56.144" ry="18"/>
<text text-anchor="middle" x="380" y="-372.4" font-family="Times,serif" font-size="14.00">AdminUser</text>
</g>
<!-- AdminPermission&#45;&gt;AdminUser -->
<g id="edge1" class="edge"><title>AdminPermission&#45;&gt;AdminUser</title>
<path fill="none" stroke="#fab9de" d="M380,-448.414C380,-435.518 380,-419.862 380,-406.685"/>
<ellipse fill="none" stroke="#fab9de" cx="380" cy="-452.576" rx="4" ry="4"/>
<polygon fill="#fab9de" stroke="#fab9de" points="380,-406.314 384.5,-396.314 380,-401.314 380,-396.314 380,-396.314 380,-396.314 380,-401.314 375.5,-396.314 380,-406.314 380,-406.314"/>
</g>
<!-- Teacher -->
<g id="node18" class="node"><title>Teacher</title>
<ellipse fill="none" stroke="black" cx="380" cy="-306" rx="41.1757" ry="18"/>
<text text-anchor="middle" x="380" y="-300.4" font-family="Times,serif" font-size="14.00">Teacher</text>
</g>
<!-- AdminUser&#45;&gt;Teacher -->
<g id="edge2" class="edge"><title>AdminUser&#45;&gt;Teacher</title>
<path fill="none" stroke="#0cd3d5" d="M380,-351.64C380,-345.348 380,-338.605 380,-332.316"/>
<ellipse fill="none" stroke="#0cd3d5" cx="380" cy="-355.697" rx="4" ry="4"/>
<ellipse fill="#0cd3d5" stroke="#0cd3d5" cx="380" cy="-328.104" rx="4" ry="4"/>
</g>
<!-- Asset -->
<g id="node5" class="node"><title>Asset</title>
<ellipse fill="none" stroke="black" cx="200" cy="-378" rx="32.2438" ry="18"/>
<text text-anchor="middle" x="200" y="-372.4" font-family="Times,serif" font-size="14.00">Asset</text>
</g>
<!-- CourseAsset -->
<g id="node9" class="node"><title>CourseAsset</title>
<ellipse fill="none" stroke="black" cx="177" cy="-162" rx="59.2825" ry="18"/>
<text text-anchor="middle" x="177" y="-156.4" font-family="Times,serif" font-size="14.00">CourseAsset</text>
</g>
<!-- Asset&#45;&gt;CourseAsset -->
<g id="edge3" class="edge"><title>Asset&#45;&gt;CourseAsset</title>
<path fill="none" stroke="#81f92c" d="M197.278,-351.67C192.919,-311.116 184.41,-231.949 179.926,-190.227"/>
<ellipse fill="none" stroke="#81f92c" cx="197.729" cy="-355.872" rx="4" ry="4"/>
<polygon fill="#81f92c" stroke="#81f92c" points="179.921,-190.175 183.326,-179.752 179.386,-185.204 178.852,-180.232 178.852,-180.232 178.852,-180.232 179.386,-185.204 174.378,-180.713 179.921,-190.175 179.921,-190.175"/>
</g>
<!-- Course -->
<g id="node8" class="node"><title>Course</title>
<ellipse fill="none" stroke="black" cx="269" cy="-234" rx="38.0929" ry="18"/>
<text text-anchor="middle" x="269" y="-228.4" font-family="Times,serif" font-size="14.00">Course</text>
</g>
<!-- Asset&#45;&gt;Course -->
<g id="edge4" class="edge"><title>Asset&#45;&gt;Course</title>
<path fill="none" stroke="#0b9833" d="M201.975,-349.647C204.201,-331.341 208.934,-307.179 219,-288 225.062,-276.449 234.354,-265.604 243.29,-256.77"/>
<polygon fill="#0b9833" stroke="#0b9833" points="201.967,-349.722 196.457,-359.202 201.45,-354.695 200.933,-359.668 200.933,-359.668 200.933,-359.668 201.45,-354.695 205.408,-360.133 201.967,-349.722 201.967,-349.722"/>
<polygon fill="#0b9833" stroke="#0b9833" points="243.355,-256.709 253.719,-253.127 246.994,-253.28 250.633,-249.851 250.633,-249.851 250.633,-249.851 246.994,-253.28 247.547,-246.576 243.355,-256.709 243.355,-256.709"/>
</g>
<!-- Asset&#45;&gt;Teacher -->
<g id="edge5" class="edge"><title>Asset&#45;&gt;Teacher</title>
<path fill="none" stroke="#8d9c1e" d="M233.504,-363.971C263.924,-352.141 308.8,-334.689 340.859,-322.222"/>
<ellipse fill="none" stroke="#8d9c1e" cx="229.518" cy="-365.521" rx="4.00001" ry="4.00001"/>
<polygon fill="#8d9c1e" stroke="#8d9c1e" points="341.046,-322.149 351.998,-322.718 345.706,-320.336 350.366,-318.524 350.366,-318.524 350.366,-318.524 345.706,-320.336 348.735,-314.33 341.046,-322.149 341.046,-322.149"/>
</g>
<!-- Category -->
<g id="node6" class="node"><title>Category</title>
<ellipse fill="none" stroke="black" cx="274" cy="-306" rx="46.1519" ry="18"/>
<text text-anchor="middle" x="274" y="-300.4" font-family="Times,serif" font-size="14.00">Category</text>
</g>
<!-- Category&#45;&gt;Course -->
<g id="edge6" class="edge"><title>Category&#45;&gt;Course</title>
<path fill="none" stroke="#27c69e" d="M272.189,-279.64C271.79,-274.063 271.367,-268.132 270.963,-262.476"/>
<ellipse fill="none" stroke="#27c69e" cx="272.479" cy="-283.707" rx="4" ry="4"/>
<polygon fill="#27c69e" stroke="#27c69e" points="270.934,-262.079 274.71,-251.784 270.578,-257.092 270.222,-252.104 270.222,-252.104 270.222,-252.104 270.578,-257.092 265.733,-252.425 270.934,-262.079 270.934,-262.079"/>
</g>
<!-- Country -->
<g id="node7" class="node"><title>Country</title>
<ellipse fill="none" stroke="black" cx="440" cy="-234" rx="42.5348" ry="18"/>
<text text-anchor="middle" x="440" y="-228.4" font-family="Times,serif" font-size="14.00">Country</text>
</g>
<!-- Student -->
<g id="node17" class="node"><title>Student</title>
<ellipse fill="none" stroke="black" cx="345" cy="-162" rx="40.3171" ry="18"/>
<text text-anchor="middle" x="345" y="-156.4" font-family="Times,serif" font-size="14.00">Student</text>
</g>
<!-- Country&#45;&gt;Student -->
<g id="edge7" class="edge"><title>Country&#45;&gt;Student</title>
<path fill="none" stroke="#02cc68" d="M413.122,-213.195C400.728,-204.062 386.009,-193.217 373.43,-183.948"/>
<ellipse fill="none" stroke="#02cc68" cx="416.633" cy="-215.782" rx="4.00002" ry="4.00002"/>
<polygon fill="#02cc68" stroke="#02cc68" points="373.169,-183.756 367.787,-174.201 369.143,-180.79 365.118,-177.824 365.118,-177.824 365.118,-177.824 369.143,-180.79 362.449,-181.447 373.169,-183.756 373.169,-183.756"/>
</g>
<!-- Course&#45;&gt;CourseAsset -->
<g id="edge8" class="edge"><title>Course&#45;&gt;CourseAsset</title>
<path fill="none" stroke="#093ce0" d="M242.814,-213.076C231.413,-204.401 218.005,-194.199 206.276,-185.275"/>
<ellipse fill="none" stroke="#093ce0" cx="246.306" cy="-215.733" rx="4.00002" ry="4.00002"/>
<polygon fill="#093ce0" stroke="#093ce0" points="206.043,-185.098 200.81,-175.462 202.064,-182.071 198.085,-179.043 198.085,-179.043 198.085,-179.043 202.064,-182.071 195.36,-182.624 206.043,-185.098 206.043,-185.098"/>
</g>
<!-- Enrollment -->
<g id="node10" class="node"><title>Enrollment</title>
<ellipse fill="none" stroke="black" cx="309" cy="-90" rx="54.2251" ry="18"/>
<text text-anchor="middle" x="309" y="-84.4" font-family="Times,serif" font-size="14.00">Enrollment</text>
</g>
<!-- Course&#45;&gt;Enrollment -->
<g id="edge9" class="edge"><title>Course&#45;&gt;Enrollment</title>
<path fill="none" stroke="#cc1007" d="M276.062,-207.929C283.162,-182.725 294.072,-143.994 301.368,-118.095"/>
<ellipse fill="none" stroke="#cc1007" cx="274.91" cy="-212.021" rx="4.00001" ry="4.00001"/>
<polygon fill="#cc1007" stroke="#cc1007" points="301.447,-117.815 308.489,-109.409 302.802,-113.002 304.158,-108.189 304.158,-108.189 304.158,-108.189 302.802,-113.002 299.827,-106.969 301.447,-117.815 301.447,-117.815"/>
</g>
<!-- Course&#45;&gt;Student -->
<g id="edge10" class="edge"><title>Course&#45;&gt;Student</title>
<path fill="none" stroke="#c9d513" d="M293.37,-210.554C302.065,-202.545 311.858,-193.525 320.559,-185.511"/>
<polygon fill="#c9d513" stroke="#c9d513" points="293.222,-210.69 282.818,-214.155 289.545,-214.077 285.867,-217.465 285.867,-217.465 285.867,-217.465 289.545,-214.077 288.916,-220.775 293.222,-210.69 293.222,-210.69"/>
<polygon fill="#c9d513" stroke="#c9d513" points="320.825,-185.267 331.229,-181.802 324.503,-181.879 328.18,-178.492 328.18,-178.492 328.18,-178.492 324.503,-181.879 325.132,-175.182 320.825,-185.267 320.825,-185.267"/>
</g>
<!-- TimeTableItem -->
<g id="node19" class="node"><title>TimeTableItem</title>
<ellipse fill="none" stroke="black" cx="510" cy="-162" rx="70.1295" ry="18"/>
<text text-anchor="middle" x="510" y="-156.4" font-family="Times,serif" font-size="14.00">TimeTableItem</text>
</g>
<!-- Course&#45;&gt;TimeTableItem -->
<g id="edge11" class="edge"><title>Course&#45;&gt;TimeTableItem</title>
<path fill="none" stroke="#f3dd89" d="M305.581,-219.447C309.09,-218.244 312.605,-217.076 316,-216 361.066,-201.719 412.731,-187.718 451.407,-177.696"/>
<ellipse fill="none" stroke="#f3dd89" cx="301.734" cy="-220.792" rx="4.00001" ry="4.00001"/>
<polygon fill="#f3dd89" stroke="#f3dd89" points="451.767,-177.604 462.574,-179.465 456.609,-176.356 461.451,-175.108 461.451,-175.108 461.451,-175.108 456.609,-176.356 460.327,-170.75 451.767,-177.604 451.767,-177.604"/>
</g>
<!-- Payment -->
<g id="node14" class="node"><title>Payment</title>
<ellipse fill="none" stroke="black" cx="309" cy="-18" rx="44.2488" ry="18"/>
<text text-anchor="middle" x="309" y="-12.4" font-family="Times,serif" font-size="14.00">Payment</text>
</g>
<!-- Enrollment&#45;&gt;Payment -->
<g id="edge12" class="edge"><title>Enrollment&#45;&gt;Payment</title>
<path fill="none" stroke="#8a7601" d="M309,-63.6398C309,-58.0629 309,-52.1319 309,-46.4761"/>
<ellipse fill="none" stroke="#8a7601" cx="309" cy="-67.6966" rx="4" ry="4"/>
<polygon fill="#8a7601" stroke="#8a7601" points="309,-46.1043 313.5,-36.1043 309,-41.1043 309,-36.1043 309,-36.1043 309,-36.1043 309,-41.1043 304.5,-36.1044 309,-46.1043 309,-46.1043"/>
</g>
<!-- Location -->
<g id="node11" class="node"><title>Location</title>
<ellipse fill="none" stroke="black" cx="546" cy="-234" rx="45.0398" ry="18"/>
<text text-anchor="middle" x="546" y="-228.4" font-family="Times,serif" font-size="14.00">Location</text>
</g>
<!-- Location&#45;&gt;TimeTableItem -->
<g id="edge13" class="edge"><title>Location&#45;&gt;TimeTableItem</title>
<path fill="none" stroke="#e6d6aa" d="M533.568,-208.827C530.322,-202.515 526.807,-195.681 523.508,-189.266"/>
<ellipse fill="none" stroke="#e6d6aa" cx="535.456" cy="-212.498" rx="4.00002" ry="4.00002"/>
<polygon fill="#e6d6aa" stroke="#e6d6aa" points="523.458,-189.168 522.886,-178.217 521.171,-184.722 518.884,-180.275 518.884,-180.275 518.884,-180.275 521.171,-184.722 514.883,-182.333 523.458,-189.168 523.458,-189.168"/>
</g>
<!-- Message -->
<g id="node12" class="node"><title>Message</title>
<ellipse fill="none" stroke="black" cx="524" cy="-475" rx="44.2418" ry="18"/>
<text text-anchor="middle" x="524" y="-469.4" font-family="Times,serif" font-size="14.00">Message</text>
</g>
<!-- MessageThread -->
<g id="node13" class="node"><title>MessageThread</title>
<ellipse fill="none" stroke="black" cx="659" cy="-475" rx="72.2559" ry="18"/>
<text text-anchor="middle" x="659" y="-469.4" font-family="Times,serif" font-size="14.00">MessageThread</text>
</g>
<!-- Refund -->
<g id="node15" class="node"><title>Refund</title>
<ellipse fill="none" stroke="black" cx="789" cy="-475" rx="39.1979" ry="18"/>
<text text-anchor="middle" x="789" y="-469.4" font-family="Times,serif" font-size="14.00">Refund</text>
</g>
<!-- Sex -->
<g id="node16" class="node"><title>Sex</title>
<ellipse fill="none" stroke="black" cx="352" cy="-234" rx="27" ry="18"/>
<text text-anchor="middle" x="352" y="-228.4" font-family="Times,serif" font-size="14.00">Sex</text>
</g>
<!-- Sex&#45;&gt;Student -->
<g id="edge14" class="edge"><title>Sex&#45;&gt;Student</title>
<path fill="none" stroke="#ecbca1" d="M349.464,-207.64C348.906,-202.063 348.313,-196.132 347.748,-190.476"/>
<ellipse fill="none" stroke="#ecbca1" cx="349.872" cy="-211.716" rx="4" ry="4"/>
<polygon fill="#ecbca1" stroke="#ecbca1" points="347.706,-190.055 351.188,-179.657 347.208,-185.08 346.71,-180.104 346.71,-180.104 346.71,-180.104 347.208,-185.08 342.233,-180.552 347.706,-190.055 347.706,-190.055"/>
</g>
<!-- Student&#45;&gt;Enrollment -->
<g id="edge15" class="edge"><title>Student&#45;&gt;Enrollment</title>
<path fill="none" stroke="#4002a9" d="M332.51,-136.714C329.212,-130.302 325.641,-123.358 322.302,-116.865"/>
<ellipse fill="none" stroke="#4002a9" cx="334.456" cy="-140.498" rx="4.00002" ry="4.00002"/>
<polygon fill="#4002a9" stroke="#4002a9" points="322.208,-116.682 321.636,-105.731 319.921,-112.235 317.634,-107.789 317.634,-107.789 317.634,-107.789 319.921,-112.235 313.633,-109.847 322.208,-116.682 322.208,-116.682"/>
</g>
<!-- Teacher&#45;&gt;Course -->
<g id="edge16" class="edge"><title>Teacher&#45;&gt;Course</title>
<path fill="none" stroke="#129263" d="M350.402,-286.334C334.807,-276.5 315.694,-264.447 299.908,-254.492"/>
<ellipse fill="none" stroke="#129263" cx="354.154" cy="-288.701" rx="4.00002" ry="4.00002"/>
<polygon fill="#129263" stroke="#129263" points="299.509,-254.24 293.451,-245.099 295.28,-251.573 291.05,-248.906 291.05,-248.906 291.05,-248.906 295.28,-251.573 288.65,-252.712 299.509,-254.24 299.509,-254.24"/>
</g>
</g>
</svg>
